<svg xmlns="http://www.w3.org/2000/svg" width="24" height="24" viewBox="0 0 24 24" fill="none">
<path d="M22.0004 19.9201V16.9201C22.0126 16.4297 21.8441 15.9519 21.527 15.5776C21.2098 15.2033 20.7662 14.9586 20.2804 14.8901C19.3204 14.7635 18.3777 14.5286 17.4704 14.1901C17.1125 14.0556 16.7235 14.0264 16.3495 14.1062C15.9756 14.1859 15.6323 14.3712 15.3604 14.6401L14.0904 15.9101C11.5869 14.4865 9.51398 12.4136 8.09042 9.9101L9.36042 8.6401C9.62928 8.36821 9.81457 8.02494 9.89433 7.65098C9.97408 7.27701 9.94496 6.88802 9.81042 6.5301C9.47187 5.62282 9.23704 4.68016 9.11042 3.7201C9.0425 3.23954 8.80215 2.80008 8.43418 2.48363C8.06621 2.16718 7.59573 1.99532 7.11042 2.0001H4.11042C3.83276 2.00036 3.5582 2.05843 3.30421 2.17062C3.05023 2.28281 2.82238 2.44665 2.63519 2.65172C2.44799 2.85679 2.30555 3.09859 2.21692 3.36172C2.1283 3.62486 2.09543 3.90356 2.12042 4.1801C2.44866 7.27109 3.5004 10.2413 5.19042 12.8501C6.72576 15.2663 8.77425 17.3148 11.1904 18.8501C13.7874 20.5342 16.7433 21.5857 19.8204 21.9201C20.0978 21.9452 20.3773 21.912 20.6412 21.8228C20.905 21.7336 21.1473 21.5902 21.3525 21.402C21.5577 21.2137 21.7214 20.9846 21.8329 20.7294C21.9445 20.4743 22.0016 20.1986 22.0004 19.9201Z" stroke="white" stroke-width="2" stroke-linecap="round" stroke-linejoin="round"/>
</svg>
